<?xml version="1.0" encoding="UTF-8"?>
<svg width="1200pt" height="1200pt" version="1.1" viewBox="0 0 1200 1200" xmlns="http://www.w3.org/2000/svg">
 <g>
  <path d="m1064 903.61c3.4688-21.234 12.188-83.016 11.766-160.4-81.047 60.703-172.4 114.52-272.34 160.4z"/>
  <path d="m484.97 137.58c38.953-13.969 77.672-21.047 115.03-21.047 37.969 0 77.297 7.3125 116.91 21.703 7.8281 2.8594 15.609 6 23.344 9.3281 14.203-14.953 21.703-31.781 21.703-48.938 0-54.375-72.656-98.625-161.95-98.625s-161.95 44.25-161.95 98.672c0 17.203 7.5 33.984 21.656 48.938 8.3906-3.6562 16.781-6.9844 25.266-10.031z"/>
  <path d="m235.22 903.61h519.66c119.34-51.047 227.11-113.2 320.44-184.78-1.7344-56.906-8.8594-120.32-26.484-181.45-113.2 98.016-249.14 180.19-404.34 244.4-121.64 50.344-258.94 91.172-409.26 121.82z"/>
  <path d="m1104.3 923.26h-1008.6c-25.922 0-47.016 21.094-47.016 47.016v182.76c0 25.875 21.094 46.969 47.016 46.969h1008.6c25.922 0 47.016-21.094 47.016-47.016v-182.76c-0.046875-25.875-21.141-46.969-47.062-46.969z"/>
  <path d="m1042.5 516.79c-4.7344-14.297-10.078-28.406-16.172-42.234-15.281-34.828-33.656-68.203-54.469-99.469-108.84 86.531-237.24 159.79-381.98 217.74-136.92 54.844-293.44 97.922-465.28 128.21-2.4375 85.734 7.2188 156.28 11.156 180.98 390.1-65.859 686.81-192 906.74-385.22z"/>
  <path d="m710.16 156.74c-15.656-5.6719-31.219-10.219-46.688-13.547 52.219 49.266 84.422 123.74 95.906 222.05 0.60938 5.3906-3.2344 10.266-8.625 10.922-0.375 0.046876-0.75 0.046876-1.1719 0.046876-4.9219 0-9.1875-3.7031-9.75-8.6719-12.844-109.97-50.344-185.26-114.61-230.21-8.4844-0.75-16.922-1.125-25.266-1.125s-16.781 0.375-25.266 1.125c-64.266 44.906-101.77 120.24-114.61 230.21-0.5625 5.0156-4.8281 8.6719-9.75 8.6719-0.375 0-0.75 0-1.1719-0.046876-5.3906-0.60937-9.2812-5.5312-8.625-10.922 11.484-98.297 43.688-172.78 95.906-222.05-14.859 3.1875-29.859 7.5-44.906 12.891-130.36 46.781-252.14 168.79-317.81 318.47-31.922 72.75-44.672 153.94-48.328 226.4 351.56-62.438 625.03-174.42 835.26-342.1-66.984-94.5-156.47-167.9-250.5-202.13z"/>
 </g>
</svg>
