<?xml version="1.0" encoding="UTF-8"?>
<svg width="1200pt" height="1200pt" version="1.1" viewBox="0 0 1200 1200" xmlns="http://www.w3.org/2000/svg">
 <g>
  <path d="m596.43 849.08h-366.96v184.09h367.36z"/>
  <path d="m46.328 1128.1 128.48 10.516 17.91-72.918-145.29-21.367z"/>
  <path d="m596.01 641.36h-366.55v195.24h366.95z"/>
  <path d="m47.059 1031.7 151.11 22.215 18.82-19.258v-139.52c-84.035-1.4648-127.06-11.59-141.28-15.754-32.652 60.5-30.062 133.27-28.648 152.32z"/>
  <path d="m114.4 450.53c-30.77 87.02-22.898 185.23-20.645 206.82 16.359 2.6953 74.816 11.387 123.22 7.4219v-198.55c-3.2109 0.23438-6.4531 0.42969-9.8242 0.42969-39.715 0-87.117-14.383-92.754-16.121z"/>
  <path d="m91.406 669.62c-32.703 56.074-16.621 175.68-13.34 197.37 11.445 3.418 53.762 14.109 138.92 15.605v-205.55c-8.9844 0.71094-18.098 1.3203-27.324 1.3203-42.832 0-84.945-6.5039-98.254-8.7422z"/>
  <path d="m117.27 438.35c0.59766 0.18359 59.375 18.484 99.715 15.371l0.003906-206.83c-87.059 83.41-99.09 176.11-100.58 194.16z"/>
  <path d="m595.54 423.2h-366.08v205.68h366.5z"/>
  <path d="m1106.2 659.64c2.2578-21.562 10.098-119.86-20.645-206.82-5.6367 1.7383-53.039 16.121-92.754 16.121-3.3906 0-6.6406-0.19531-9.8711-0.42969v198.55c48.508 4.0039 106.91-4.707 123.27-7.4219z"/>
  <path d="m1082.7 440.64 0.92578 2.9219c-1.2109-19.668-12.266-135.13-100.7-221.46v233.92c40.484 3.2109 99.164-15.191 99.77-15.375z"/>
  <path d="m1108.6 671.9c-13.328 2.2461-55.449 8.7383-98.254 8.7383-9.2578 0-18.379-0.59766-27.371-1.3086v205.55c85.184-1.4844 127.52-12.188 138.96-15.613 3.293-21.676 19.363-141.29-13.34-197.37z"/>
  <path d="m595.03 179.33h3.3398l-152.06-129.96v113.12l148.91 101.85z"/>
  <path d="m745.65 40.977h-289.95l145.56 124.38z"/>
  <path d="m595.23 279.47-161.41-110.4v-31.359c-27.332 1.6016-143.69 13.328-204.36 96.648v176.35h366.05z"/>
  <path d="m607.51 179.3 0.18359 84.793 148.53-101.6v-114.14l-152.04 130.95z"/>
  <path d="m608.46 628.88h362.03v-205.68h-362.47z"/>
  <path d="m608.89 836.6h358.02v12.48h-358l0.39062 184.09h361.19v-391.81h-362z"/>
  <path d="m768.7 169.07-160.98 110.11 0.28516 131.54h362.49l-0.003907-200.43c-13.496-11.176-91.594-71.535-201.79-71.535z"/>
  <path d="m257.01 1159h684.86v-113.37h-684.86zm631.31-112.57h12.48v110.23h-12.48zm-62.402 1.5625h12.48v110.23h-12.48zm-65.527-0.027344h12.48v110.23h-12.48zm-64.473 0h12.48v110.23h-12.48zm-71.758-1.5352h12.48v110.23h-12.48zm-61.387-0.78125h12.48v110.23h-12.48zm-62.402 1.5625h12.48v110.23h-12.48zm-65.516-0.027344h12.48v110.23h-12.48zm-64.504 0h12.48v110.23h-12.48zm-71.758-1.5352h12.48v110.23h-12.48z"/>
  <path d="m1124.3 881.64c-14.219 4.1484-57.258 14.297-141.33 15.742v139.48l18.867 19.305 151.11-22.215c1.4141-19.043 4.0039-91.816-28.645-152.32z"/>
  <path d="m1152.6 1046.6-145.29 21.355 17.91 72.922 128.48-10.52z"/>
 </g>
</svg>
