<?xml version="1.0" encoding="UTF-8"?>
<svg width="1200pt" height="1200pt" version="1.1" viewBox="0 0 1200 1200" xmlns="http://www.w3.org/2000/svg">
 <path d="m1175.8 449.7c-36.363-6.0625-66.668-10.91-93.332-15.758-81.211-12.121-146.67-15.758-207.27-12.121-58.184 3.6367-109.09 14.547-156.36 31.516-24.242 8.4844-46.062 13.332-69.09 12.121-33.938-1.2109-69.09-1.2109-98.184 0-20.605 0-40-2.4258-58.184-8.4844-19.395-7.2734-43.637-14.547-66.668-20.605-72.727-18.184-151.52-20.605-246.06-10.91-30.305 3.6367-61.816 8.4844-90.91 12.121-10.91 1.2109-21.816 3.6367-32.727 4.8477-12.121 1.2109-24.242 3.6367-38.789 7.2734-10.91 2.4258-14.547 7.2734-14.547 18.184 0 12.121 0 24.242 1.2109 35.152 1.2109 14.547 4.8477 16.969 18.184 18.184 16.969 2.4258 21.816 6.0625 24.242 23.031 0 8.4844 1.2109 16.969 2.4258 25.453l1.2109 12.121c4.8477 37.574 13.332 81.211 27.879 122.43 7.2734 20.605 15.758 36.363 26.668 49.695 15.758 19.395 35.152 33.938 58.184 42.426 33.938 13.332 69.09 20.605 103.03 21.816h3.6367c37.574 0 82.426-7.2734 89.695-8.4844 59.395-10.91 103.03-41.211 134.55-94.547 20.605-33.938 36.363-72.727 50.91-117.57 3.6367-13.332 7.2734-27.879-1.2109-43.637-2.4258-4.8477-1.2109-9.6953 1.2109-13.332 2.4258-4.8477 7.2734-7.2734 14.547-8.4844 27.879-6.0625 53.332-6.0625 78.789 0 9.6953 2.4258 15.758 4.8477 16.969 9.6953 2.4258 4.8477 1.2109 10.91-1.2109 20.605-1.2109 3.6367-3.6367 12.121-2.4258 20.605 12.121 47.273 24.242 82.426 41.211 113.94 16.969 32.727 36.363 55.758 59.395 72.727 26.668 19.395 58.184 31.516 98.184 38.789l13.332 2.4258c4.8477 1.2109 9.6953 1.2109 15.758 1.2109 18.184 0 42.426 2.4258 87.273-1.2109 12.121-1.2109 23.031-3.6367 33.938-6.0625l4.8477-1.2109c54.547-13.332 92.121-46.062 110.3-98.184 10.91-31.516 20.605-67.879 27.879-112.73 1.2109-6.0625 2.4258-13.332 3.6367-19.395 1.2109-9.6953 3.6367-20.605 4.8477-30.305 2.4258-12.121 9.6953-19.395 23.031-21.816h1.2109 3.6367c7.2734 0 13.332-6.0625 13.332-13.332l1.2109-7.2734c1.2109-7.2734 1.2109-15.758 2.4258-23.031 1.2148-14.543-8.4844-26.664-21.816-27.879z"/>
</svg>
