<?xml version="1.0" encoding="UTF-8"?>
<svg width="1200pt" height="1200pt" version="1.1" viewBox="0 0 1200 1200" xmlns="http://www.w3.org/2000/svg">
 <path d="m193.4 952.84c-0.78125 23.797-1.4531 47.629-2.0391 71.496 12.457 5.832 24.898 10.043 37.309 12.551 12.469 2.5195 24.949 3.3359 37.43 2.3633 12.109-20.832 23.102-42.66 33.121-65.328-17.566 0.058593-36.012-1.7891-54.047-5.3633-18-3.5625-35.676-8.8672-51.758-15.707zm476.07-777.54c-26.941 7.7031-50.16 10.477-73.43 9.2656-21.516-1.1289-42.949-5.6641-67.344-12.887 5.0273 9.9375 10.355 19.656 16.008 29.016 15.816 26.219 34.117 49.621 55.32 67.094 21.203-17.484 39.492-40.871 55.32-67.094 4.957-8.2188 9.6719-16.703 14.148-25.379zm23.125-50.785c-5.0156 12.422-10.43 24.84-16.273 37.008-0.88672-0.15625-1.8359-0.10938-2.7617 0.17969-28.848 9-52.922 12.289-76.934 11.039-23.473-1.2227-47.051-6.7812-75.023-15.59-5.0273-10.715-9.7305-21.602-14.137-32.496 31.512 12.348 61.992 18.406 92.531 18.324 30.539-0.070312 61.043-6.3008 92.594-18.469zm13.367-1.5 25.969 18.406c-6 30.793-24.516 66.938-48.434 99.602-24.828 33.91-55.297 63.875-83.496 80.074-28.199-16.199-58.668-46.164-83.496-80.074-23.902-32.664-42.434-68.809-48.434-99.602l25.969-18.406c11.316 28.68 24.66 57.562 40.488 83.785 17.27 28.633 37.488 54.109 61.246 72.793 1.2461 0.98438 2.7617 1.3789 4.2227 1.2344 1.4648 0.13281 2.9766-0.26562 4.2227-1.2344 23.762-18.684 43.98-44.172 61.246-72.793 15.816-26.23 29.172-55.105 40.488-83.785zm300.65 829.81c-16.078 6.8398-33.742 12.133-51.758 15.707-18.035 3.5742-36.48 5.4258-54.047 5.3633 10.02 22.668 21 44.496 33.121 65.328 12.48 0.97266 24.961 0.16797 37.43-2.3633 12.406-2.5078 24.84-6.7188 37.309-12.551-0.60156-23.867-1.2617-47.688-2.0391-71.496zm-193.34 43.465c-71.184 13.883-142.37 20.664-213.56 20.102-71.172-0.5625-142.32-8.4609-213.46-23.891 2.4258 18.109 5.3164 37.141 8.7461 57.238 68.375 17.867 136.73 27.086 205.02 27.238 68.328 0.14453 136.67-8.7734 205.01-27.191 3.1914-18.73 5.9297-36.527 8.2422-53.484zm-3.8867-498.86c-118.57 21.504-183.45 9.8047-241.41-0.66016-52.691-9.5156-99.574-17.965-177.12 1.5586 0.63672 14.941 0.94922 29.195 0.99609 42.91 78.91-19.598 126.7-10.969 180.36-1.2852 56.773 10.246 120.29 21.707 236.03 0.875 0.097657-13.848 0.45703-28.273 1.1523-43.414zm-418.74 99.492c0.63672-13.969 1.0547-28.391 1.1758-43.465 78.254-19.922 125.34-11.426 178.3-1.8594 57.434 10.367 121.63 21.949 238.11 1.2617 0.058594 14.941 0.43359 29.219 1.0312 43.02-115.03 20.555-178.31 9.1328-234.9-1.0781-54.422-9.8281-102.79-18.551-183.71 2.125zm-18.086 85.379-0.88672 9.7695c-1.8945 20.977-3.793 41.902-5.293 63.574-11.102 51.828-24.168 101.98-40.391 149.43-6.6484 19.453-13.836 38.449-21.625 56.902-18.254 0.48047-37.777-1.2969-56.914-5.0898-18.828-3.7305-37.223-9.4062-53.594-16.812 2.9766-86.113 7.5469-171.88 15.949-257.62 33.406-13.836 51.156-8.1484 70.836-1.8359 21.828 7.0078 45.828 14.699 91.922 1.668zm12.91-11.746c1.7539-19.895 3.3711-40.078 4.5469-61.234 80.629-21.227 128.4-12.602 182.24-2.8789 57.348 10.355 121.44 21.91 237.55 1.3555 1.6094 30.648 4.2109 59.113 6.8047 87.469 1.6445 17.977 3.2891 35.902 4.6562 54.336-0.40625 1.0312-0.51562 2.1836-0.27734 3.3477l0.79297 3.7305c4.3906 62.496 5.4102 131.41-6.875 227.24-71.711 14.258-143.41 21.203-215.1 20.641-71.699-0.5625-143.43-8.6758-215.16-24.527-11.641-93-10.738-160.98-6.5273-222.68 0.3125-1.4648 0.625-2.9297 0.9375-4.3906 0.26562-1.2461 0.10937-2.4844-0.37109-3.5742 1.3906-19.078 3.0703-37.645 4.7656-56.23 0.46875-5.1367 0.9375-10.285 1.3906-15.445 1.3789-1.5234 1.9336-3.7188 1.2461-5.8203-0.15625-0.48047-0.35938-0.92578-0.625-1.332zm-8.1953-46.691c-57.742 12.422-78.047 5.5781-95.988-0.46875-14.93-5.0391-28.066-9.457-65.195 1.1172-0.55078 4.6445-1.0938 9.3008-1.6328 13.945-1.1641 10.262-2.2812 20.52-3.3242 30.781 33.613-12.527 52.402-6.5039 73.129 0.14453 20.832 6.6836 43.812 14.051 89.438 0.25391 1.3203-14.988 2.5547-30.145 3.5898-45.77zm612.34 52.211c8.7969 87.875 13.523 175.77 16.586 264.02-16.379 7.4023-34.766 13.078-53.594 16.812-19.152 3.793-38.664 5.5664-56.914 5.0898-7.7891-18.457-14.965-37.453-21.625-56.902-16.297-47.664-29.41-98.039-40.535-150.12-1.4766-20.688-3.3008-40.703-5.1367-60.77-0.55078-5.9883-1.0938-11.988-1.6328-18 47.723 14.004 71.617 5.8555 93.289-1.5352 19.105-6.5156 36.301-12.383 69.574 1.4023zm-167.94-68.039c-0.070312-1.4414-0.15625-2.8789-0.21484-4.3203 0.74219-1.1992 1.0664-2.6758 0.79297-4.1875-0.16797-0.94922-0.5625-1.8008-1.1055-2.5078-0.69531-15.926-1.1055-32.484-1.0781-49.969 0.16797-0.75781 0.19141-1.5469 0.046875-2.3516l-0.035157-0.17969c0.085938-24.695 1.0312-51.227 3.2266-80.387 0.23828-3.2656-2.207-6.1094-5.4727-6.3477s-6.1094 2.207-6.3477 5.4727c-0.5625 7.5234-1.043 14.867-1.4531 22.055-118.25 21.805-182.54 10.199-239.95-0.16797-53.531-9.6602-101.21-18.266-179.79 1.1406-0.45703-8.5195-1.0078-17.242-1.6797-26.23-0.23828-3.2656-3.0859-5.7109-6.3477-5.4727-3.2656 0.23828-5.7109 3.0859-5.4727 6.3477 0.78125 10.32 1.3906 20.316 1.8711 30.023-0.82812 1.332-1.1172 2.9883-0.69531 4.6211 0.20312 0.76953 0.55078 1.4648 1.0078 2.0625 0.76953 17.617 1.0781 34.273 1.043 50.207-0.12109 0.67188-0.13281 1.3672 0 2.0742-0.097657 22.02-0.85156 42.648-2.0039 62.438-0.92578-0.28906-1.9336-0.34766-2.9531-0.13281-54.793 11.809-73.477 5.5078-90-0.058594-16.094-5.4258-30.336-10.223-67.414-0.35938 14.977-120.5 38.699-241.02 77.316-362.41 1.8125-5.6875 5.832-13.234 10.895-20.461 4.5469-6.4805 9.8633-12.574 15.07-16.645 0.20312-0.15625 0.40625-0.3125 0.60156-0.50391 12.215-11.617 32.629-18.289 55.621-25.801 25.766-8.4102 54.637-17.855 80.543-36.719 7.3672 31.273 25.859 66.742 49.297 98.746 26.578 36.312 59.664 68.387 90.168 85.008h0.023437l0.023438 0.023437c0.085937 0.046876 0.16797 0.097657 0.26562 0.13281l0.085937 0.046875c0.085938 0.035156 0.16797 0.070312 0.25391 0.10938 0.67187 0.27734 1.3789 0.42188 2.0742 0.43359h0.12109 0.023438 0.12109c0.69531-0.011719 1.3906-0.15625 2.0742-0.43359 0.085938-0.035156 0.16797-0.070313 0.25391-0.10938l0.085938-0.046875c0.085937-0.046875 0.17969-0.085937 0.26562-0.13281l0.023437-0.011718h0.023438c30.504-16.645 63.59-48.719 90.168-85.031 23.426-32.004 41.93-67.465 49.297-98.746 25.906 18.863 54.793 28.297 80.543 36.719 23.004 7.5117 43.402 14.184 55.621 25.801 0.19141 0.17969 0.39453 0.34766 0.60156 0.50391 5.207 4.0547 10.523 10.152 15.07 16.645 5.0625 7.2227 9.0859 14.785 10.895 20.461 37.98 119.36 61.535 237.88 76.559 356.36-35.293-9.0234-49.262-4.3203-65.004 0.98437-16.512 5.5664-35.195 11.867-90 0.058594-1.8359-0.38281-3.6484 0.12109-4.9922 1.2227zm161.55 10.391c-35.328-9.7188-48.215-5.375-62.82-0.44531-17.965 6.0586-38.293 12.91-96.203 0.43359-0.73047-0.15625-1.4023-0.44531-1.9922-0.82812 0.94922 15.73 2.1367 30.938 3.4219 45.91 47.172 14.785 69.984 7.0078 90.613-0.035157 20.184-6.8867 38.484-13.117 72.012-0.63672-0.85156-8.125-1.7383-16.234-2.6641-24.359-0.75781-6.6836-1.5469-13.355-2.3633-20.039z" fill-rule="evenodd"/>
</svg>
