<?xml version="1.0" encoding="UTF-8"?>
<svg width="1200pt" height="1200pt" version="1.1" viewBox="0 0 1200 1200" xmlns="http://www.w3.org/2000/svg">
 <path d="m1190.5 151.99-424.22-61.27c-2.4102-0.34766-4.7422 0.91406-5.832 3.0938-29.648 59.27-90.898 99.977-161.68 99.977-70.652 0-131.82-40.559-161.53-99.656-1.0938-2.1719-3.418-3.4297-5.8281-3.082l-421.93 60.938c-2.9141 0.42188-5.0117 3.0195-4.8008 5.957l18.426 260.47c0.21875 3.0781 2.875 5.4062 5.957 5.2109l211.98-13.227c3.2969-0.20703 6.0625 2.4648 5.9688 5.7695l-19.484 687.39c-0.089844 3.1641 2.4531 5.7812 5.6172 5.7812h731.26c3.168 0 5.707-2.6133 5.6172-5.7812l-19.488-687.54c-0.09375-3.3047 2.668-5.9727 5.9688-5.7695l214.42 13.379c3.0781 0.19141 5.7383-2.1328 5.957-5.2109l18.426-260.47c0.20312-2.9336-1.8945-5.5312-4.8086-5.9531z"/>
</svg>
