<?xml version="1.0" encoding="UTF-8"?>
<svg width="1200pt" height="1200pt" version="1.1" viewBox="0 0 1200 1200" xmlns="http://www.w3.org/2000/svg">
 <path d="m594.82 56.25c-4.9727-0.019531-9.75 1.9375-13.281 5.4414s-5.5234 8.2656-5.543 13.238v59.105c-258.75 11.289-469.68 203.35-509.21 453.7h-0.003906c-0.96094 5.6797 0.74219 11.488 4.6172 15.754 3.8789 4.2617 9.5 6.5039 15.25 6.082 5.7461-0.42187 10.98-3.4648 14.191-8.25 23.66-34.254 66.566-56.066 113.23-56.066 46.672 0 89.57 21.809 113.23 56.066 3.5039 5.0586 9.2656 8.0781 15.418 8.0781s11.914-3.0195 15.418-8.0781c23.66-34.254 66.566-56.066 113.23-56.066 41.484 0 79.965 17.27 104.62 45.152v431.69c0 46.914-37.082 84.156-84.008 84.156-46.926 0-84.156-37.238-84.156-84.156v-21.754c-0.019532-4.9727-2.0156-9.7344-5.543-13.238-3.5312-3.5-8.3086-5.457-13.281-5.4375-4.9453 0.019531-9.6875 1.9922-13.184 5.4883-3.5 3.5-5.4727 8.2383-5.4922 13.188v21.754c0 67.043 54.605 121.66 121.66 121.66 67.051 0 121.55-54.609 121.55-121.66l-0.003906-124.29v-294.58c0.58594-0.54688 1.1367-1.1367 1.6484-1.7578 0.097656-0.046875 0.19531-0.097656 0.29297-0.14844 23.66-34.254 66.527-55.922 113.2-55.922 46.672 0 89.57 21.664 113.23 55.922h0.003906c3.5 5.0742 9.2695 8.1055 15.434 8.1055 6.1641 0 11.938-3.0312 15.438-8.1055 23.66-34.254 66.527-55.922 113.2-55.922 46.672 0 89.723 21.68 113.38 55.922 3.2539 4.668 8.4531 7.6016 14.133 7.9805 5.6758 0.37891 11.219-1.8438 15.066-6.0352 3.8438-4.1953 5.5781-9.9062 4.7109-15.531-40.086-253.79-256.13-447.67-519.73-454.07v-58.738c-0.019531-4.9531-1.9961-9.6992-5.5039-13.199s-8.2539-5.4688-13.211-5.4766z"/>
</svg>
